<mxfile host="65bd71144e">
    <diagram id="13zy2GMkJTVxGGq8HJfd" name="Page-1">
        <mxGraphModel dx="1204" dy="624" grid="1" gridSize="10" guides="1" tooltips="1" connect="1" arrows="1" fold="1" page="1" pageScale="1" pageWidth="1100" pageHeight="850" math="0" shadow="0">
            <root>
                <mxCell id="0"/>
                <mxCell id="1" parent="0"/>
                <mxCell id="3" value="16&lt;br style=&quot;font-size: 13px;&quot;&gt;index: 16" style="rounded=0;whiteSpace=wrap;html=1;fontSize=13;" vertex="1" parent="1">
                    <mxGeometry x="130" y="170" width="120" height="60" as="geometry"/>
                </mxCell>
                <mxCell id="4" value="16&lt;br style=&quot;font-size: 13px;&quot;&gt;index: 0" style="rounded=0;whiteSpace=wrap;html=1;fontSize=13;" vertex="1" parent="1">
                    <mxGeometry x="250" y="170" width="120" height="60" as="geometry"/>
                </mxCell>
                <mxCell id="5" value="8&lt;br style=&quot;font-size: 13px;&quot;&gt;index: 24" style="rounded=0;whiteSpace=wrap;html=1;fontSize=13;" vertex="1" parent="1">
                    <mxGeometry x="130" y="250" width="60" height="60" as="geometry"/>
                </mxCell>
                <mxCell id="6" value="8&lt;br style=&quot;font-size: 13px;&quot;&gt;index: 16" style="rounded=0;whiteSpace=wrap;html=1;fontSize=13;" vertex="1" parent="1">
                    <mxGeometry x="190" y="250" width="60" height="60" as="geometry"/>
                </mxCell>
                <mxCell id="9" value="8&lt;br style=&quot;font-size: 13px;&quot;&gt;index: 0" style="rounded=0;whiteSpace=wrap;html=1;fontSize=13;" vertex="1" parent="1">
                    <mxGeometry x="310" y="250" width="60" height="60" as="geometry"/>
                </mxCell>
                <mxCell id="10" value="8&lt;br style=&quot;font-size: 13px;&quot;&gt;index: 8" style="rounded=0;whiteSpace=wrap;html=1;fontSize=13;" vertex="1" parent="1">
                    <mxGeometry x="250" y="250" width="60" height="60" as="geometry"/>
                </mxCell>
                <mxCell id="12" value="b[0] * a[0] shift by 0+0 = 0&lt;br style=&quot;font-size: 13px;&quot;&gt;b[8]*a[0] shift by 8+0 = 8&lt;br style=&quot;font-size: 13px;&quot;&gt;....&lt;br style=&quot;font-size: 13px;&quot;&gt;b[0]*a[16] shift by 16+0 = 16&lt;br style=&quot;font-size: 13px;&quot;&gt;b[8]*a[16] shift by 8+16 = 24&lt;br style=&quot;font-size: 13px;&quot;&gt;...&lt;br style=&quot;font-size: 13px;&quot;&gt;b[24]*a[16] shift by 16+24 = 40" style="text;html=1;align=center;verticalAlign=middle;resizable=0;points=[];autosize=1;strokeColor=none;fillColor=none;fontSize=13;" vertex="1" parent="1">
                    <mxGeometry x="155" y="315" width="190" height="120" as="geometry"/>
                </mxCell>
                <mxCell id="13" value="a" style="text;html=1;align=center;verticalAlign=middle;resizable=0;points=[];autosize=1;strokeColor=none;fillColor=none;fontSize=13;" vertex="1" parent="1">
                    <mxGeometry x="380" y="190" width="20" height="20" as="geometry"/>
                </mxCell>
                <mxCell id="14" value="b" style="text;html=1;align=center;verticalAlign=middle;resizable=0;points=[];autosize=1;strokeColor=none;fillColor=none;fontSize=13;" vertex="1" parent="1">
                    <mxGeometry x="380" y="270" width="20" height="20" as="geometry"/>
                </mxCell>
            </root>
        </mxGraphModel>
    </diagram>
</mxfile>